<svg width="162" height="32" viewBox="0 0 162 32" fill="none" xmlns="http://www.w3.org/2000/svg">
    <path fill-rule="evenodd" clip-rule="evenodd" d="M9.19488 0.132246C7.01782 -0.448156 4.80324 0.93223 4.35084 3.15343L3.19114 8.82724H13.3073V8.82945L13.4729 8.82724L14.9338 8.82945C16.2469 8.86476 17.1958 9.34806 17.4275 10.8818L18.1558 17.68C18.297 19.0063 18.6523 19.0516 19.374 17.68C20.0956 16.3085 22.8288 10.8807 22.8288 10.8807C23.4302 9.82584 24.1926 9.2631 25.0445 9.00489L25.1968 8.25677C25.6193 6.21195 24.3766 4.1917 22.361 3.64666L9.19488 0.133349V0.132246ZM10.7926 9.93067H2.96604L2.74094 11.0341H10.3325L10.3435 10.9811C10.434 10.553 10.5918 10.2087 10.7926 9.93067ZM2.51584 12.1375L2.29074 13.2409H9.86907L10.1008 12.1375H2.51584ZM9.63845 14.3444H2.06564L1.84054 15.4478H9.40784L9.63845 14.3444ZM1.61544 16.5512L1.39035 17.6547H8.89364V17.9018L9.17612 16.5512H1.61544ZM8.71489 18.7581H1.16414L0.827598 20.4132H8.36841L8.71599 18.7581H8.71489ZM0.264851 23.1718L0.146784 23.7423C-0.27575 25.7871 0.966964 27.8073 2.98259 28.3524L16.1498 31.8668C18.3268 32.4472 20.5403 31.0668 20.9949 28.8456L23.6873 15.6519L20.6418 21.3975C20.0515 22.4259 19.5527 23.1089 18.1359 23.1674C18.0697 23.1707 17.7917 23.1718 17.7211 23.1718C16.1255 23.1718 15.6797 22.4755 15.5219 21.3964L14.6988 14.0034C14.6028 13.402 14.2309 13.4197 14.125 14.0034L12.3573 23.1674L8.89364 23.1718H0.264851Z" fill="#1CA345"/>
    <path fill-rule="evenodd" clip-rule="evenodd" d="M50.2968 13.4259C50.1997 13.4259 50.0652 13.6166 49.9116 13.8831L45.4945 21.5368C44.8969 22.565 44.3953 23.2319 42.8714 23.2319C41.3293 23.2319 41.117 22.565 40.9633 21.5368L39.8428 13.8831C39.8054 13.6545 39.767 13.427 39.6507 13.427C39.4575 13.427 39.3807 13.7504 39.3615 13.8452L37.4715 23.0791H34L36.4684 11.656C36.8547 9.86614 38.4747 9.59961 39.497 9.59961C40.847 9.59961 41.8299 10.0379 42.0614 11.5602L43.2193 19.2528C43.2577 19.4993 43.3346 19.8048 43.4893 19.8048C43.643 19.8048 43.8169 19.5004 43.9514 19.2528L48.3674 11.5602C49.236 10.0568 50.4515 9.59961 51.7823 9.59961C53.6339 9.59961 54.3083 10.3044 54.3083 11.1419C54.3083 11.3137 54.2891 11.4843 54.2507 11.656L51.7823 23.0791H48.3097L50.4121 13.8452C50.4323 13.7694 50.4323 13.7125 50.4323 13.6545C50.4323 13.5028 50.3736 13.4259 50.2968 13.4259ZM64.2309 21.1628L63.7688 23.2951H57.9826C55.5142 23.2951 54.4534 22.3048 54.4534 20.2104C54.4534 19.5246 54.6712 18.1098 54.8835 17.1964C55.8098 13.1794 57.0243 12.6463 60.9974 12.6463C63.8713 12.6463 65.7025 13.3121 65.7025 15.692C65.7025 16.0913 65.6257 16.5674 65.5104 17.0816C65.2596 18.2246 64.7197 18.7956 63.4657 18.7956H57.6987C57.6422 19.0621 57.5386 19.7543 57.5386 19.9629C57.5386 20.7435 57.9634 21.1628 59.2557 21.1628H64.2309ZM58.1427 16.7392C58.4714 15.2537 59.165 14.7786 60.7274 14.7786C61.595 14.7786 62.6173 15.0451 62.6173 15.8637C62.6173 15.9385 62.5986 16.0318 62.5797 16.1263L62.5797 16.1264L62.5789 16.1302C62.5213 16.3778 62.4242 16.7392 61.8852 16.7392H58.1427ZM66.6299 17.425C67.2851 14.3783 68.4238 12.7601 71.8953 12.7601V12.7612H76.0413C77.1021 12.7612 77.6229 13.3701 77.6229 14.1886C77.6229 14.3414 77.6036 14.4942 77.5652 14.6648L75.9004 22.4396C75.2249 25.5422 73.8365 26.6663 70.5582 26.6663H65.4283L65.8903 24.5698H70.5005C71.4845 24.5698 72.3126 24.2854 72.7181 23.2951H69.8442C67.2211 23.2951 66.3535 21.7907 66.3535 19.6205C66.3535 19.0684 66.4954 18.0339 66.6299 17.425ZM73.1813 21.1059H70.9626C69.7674 21.1059 69.4398 20.458 69.4398 19.6015C69.4398 19.1822 69.5998 18.2815 69.6959 17.8053C70.0438 16.244 70.5069 14.9503 72.3201 14.9503H73.7277C74.1908 14.9503 74.3829 15.0641 74.3829 15.4065C74.3829 15.4863 74.3693 15.5662 74.3535 15.6586L74.3445 15.712L73.1813 21.1059ZM79.8404 14.8924L80.3025 12.7601H86.6095C88.3266 12.7601 89.1558 13.8073 89.1558 15.1789C89.1558 15.4407 89.1297 15.7018 89.0779 15.9585L87.9339 21.3914C87.6639 22.6282 87.0279 23.2951 85.5808 23.2951H80.2385C78.7348 23.2951 77.9046 22.3238 77.9046 20.8204C77.9046 20.4959 78.0273 19.6142 78.0849 19.2338C78.4136 17.3102 79.4733 16.5485 81.3057 16.5485H85.9543L86.0503 16.1113C86.0542 16.0842 86.0582 16.0587 86.0619 16.0343C86.0766 15.9387 86.0887 15.8593 86.0887 15.7678C86.0887 15.1979 85.7024 14.8924 85.0088 14.8924H79.8404ZM85.5103 18.6049L85.0984 20.5728C84.9832 21.048 84.7516 21.2387 84.2692 21.2387H81.7048C81.2224 21.2387 80.9909 20.9721 80.9909 20.5349C80.9909 20.3822 81.1125 19.6521 81.1712 19.4424C81.3633 18.7577 81.7112 18.6049 82.2896 18.6049H85.5103ZM93.7969 25.2757C95.1661 25.2757 96.3624 24.7036 96.8053 23.2951H93.6827C91.0788 23.2951 90.1782 21.6706 90.1782 19.6521C90.1782 19.0432 90.2753 18.3573 90.4289 17.6146C91.1045 14.4741 92.1844 12.7601 95.752 12.7601H98.1243C99.533 12.7601 100.401 13.0835 100.401 14.0549C100.401 14.1876 100.381 14.3404 100.343 14.5121L98.6579 22.3238C98.0208 25.2746 96.9216 26.5694 93.528 26.5694H89.2657L89.5357 25.2757H93.7969ZM97.1148 22.0003H94.0861C92.3509 22.0003 91.875 20.9089 91.875 19.6721C91.875 19.1569 91.971 18.5291 92.1257 17.8053C92.6273 15.4255 93.3402 14.0549 95.7904 14.0549H98.0848C98.5096 14.0549 98.6825 14.2076 98.6825 14.5121C98.6825 14.5879 98.6825 14.6638 98.6632 14.7396L97.1148 22.0003ZM102.283 23.2951H100.663H100.662L102.135 16.3968C102.675 13.9021 103.967 12.7601 106.686 12.7601H107.806L107.536 14.0549H106.705C104.932 14.0549 104.083 14.9493 103.678 16.7961L102.283 23.2951ZM113.765 12.6463C110.1 12.6463 108.359 14.2139 107.529 18.0213C107.39 18.6272 107.318 19.2466 107.317 19.8681C107.317 22.3617 108.841 23.4089 111.849 23.4089C115.514 23.4089 117.192 22.2289 118.021 18.4016C118.174 17.7168 118.316 16.6633 118.316 16.1302C118.316 13.6545 116.773 12.6463 113.765 12.6463ZM113.688 13.94C111.084 13.94 109.843 15.3559 109.226 18.212C109.091 18.8398 109.014 19.3729 109.014 19.8301C109.014 21.4673 109.921 22.1141 111.945 22.1141C114.549 22.1141 115.706 21.0669 116.324 18.212C116.458 17.583 116.62 16.6064 116.62 16.1492C116.62 14.53 115.712 13.94 113.688 13.94ZM129.868 12.7601H128.249L126.41 21.3535C126.295 21.8676 126.063 22.0003 125.678 22.0003H122.765C121.55 22.0003 121.106 21.4483 121.106 20.5539C121.106 20.3063 121.145 20.0398 121.203 19.7353L122.694 12.7601H121.074L119.525 20.0208C119.466 20.3027 119.434 20.5895 119.428 20.8773C119.428 22.4576 120.566 23.2951 122.457 23.2951H126.044C127.355 23.2951 127.741 22.7051 127.972 21.639L129.868 12.7601ZM134.549 23.2951H131.424L130.731 26.5314H129.13L131.72 14.3404C131.971 13.1984 132.549 12.7601 133.746 12.7601H136.619C139.165 12.7601 140.149 13.998 140.149 16.0154C140.141 16.6692 140.064 17.3205 139.917 17.9581C139.158 21.5431 138.021 23.2951 134.549 23.2951ZM133.282 14.6459C133.378 14.1876 133.629 14.0549 134.016 14.0549H136.252C137.95 14.0549 138.451 14.7786 138.451 15.9585C138.44 16.5679 138.363 17.1745 138.22 17.7674C137.674 20.4011 136.998 22.0003 134.549 22.0003H131.714L133.282 14.6448V14.6459ZM143.383 21.2387L142.939 23.2951V23.2961H141.184L141.628 21.2387H143.383ZM144.809 23.2951H146.429L147.825 16.7961C148.229 14.9493 149.078 14.0549 150.852 14.0549H151.681L151.951 12.7601H150.833C148.114 12.7601 146.822 13.9021 146.282 16.3968L144.809 23.2951ZM160.38 12.7601H162L160.104 21.639C159.872 22.7051 159.486 23.2951 158.174 23.2951H154.587C152.697 23.2951 151.56 22.4576 151.56 20.8773C151.56 20.6108 151.598 20.3253 151.656 20.0208L153.205 12.7601H154.825L153.333 19.7353C153.276 20.0398 153.237 20.3063 153.237 20.5539C153.237 21.4483 153.681 22.0003 154.896 22.0003H157.808C158.193 22.0003 158.425 21.8676 158.541 21.3535L160.38 12.7601Z" fill="#323232"/>
</svg>
